<?xml version="1.0" encoding="iso-8859-1"?>
<!-- Uploaded to: SVG Repo, www.svgrepo.com, Generator: SVG Repo Mixer Tools -->
<svg fill="#000000" height="800px" width="800px" version="1.1" id="Capa_1" xmlns="http://www.w3.org/2000/svg" xmlns:xlink="http://www.w3.org/1999/xlink" 
	 viewBox="0 0 470.057 470.057" xml:space="preserve">
<g>
	<path d="M462.419,167.799c8.09-26.183,9.764-53.235,4.973-80.404c-0.526-2.987-2.801-5.363-5.763-6.02
		c-2.961-0.654-6.026,0.535-7.767,3.021c-20.12,28.734-49.444,49.946-82.908,60.081c-23.65-21.844-52.383-37.862-83.429-46.297
		v-4.44c0-3.501-2.422-6.536-5.835-7.313c-30.5-6.942-62.855-6.936-93.318-0.002c-3.414,0.777-5.836,3.812-5.836,7.313l0,4.442
		c-31.046,8.434-59.781,24.453-83.433,46.298C65.64,134.342,36.315,113.13,16.195,84.395c-1.739-2.485-4.809-3.675-7.767-3.021
		c-2.962,0.657-5.236,3.033-5.763,6.02c-4.791,27.169-3.117,54.221,4.973,80.404c7.269,23.522,19.742,45.539,36.186,63.953
		c-5.195,16.72-8.167,34.183-8.815,52.108h-2.644c-4.143,0-7.5,3.358-7.5,7.5v23.074c-8.729,3.096-15,11.432-15,21.21
		s6.271,18.114,15,21.21v24.496c0,4.142,3.357,7.5,7.5,7.5l405.327,0.011c1.989,0,3.896-0.79,5.304-2.197
		c1.406-1.406,2.196-3.314,2.196-5.303v-24.506c8.729-3.096,15-11.432,15-21.21s-6.271-18.114-15-21.21V291.36
		c0-4.142-3.357-7.5-7.5-7.5h-2.644c-0.648-17.926-3.62-35.389-8.815-52.109C442.678,213.337,455.151,191.321,462.419,167.799z
		 M454.733,107.559c2.525,39.133-9.563,77.244-34.348,107.936c-7.147-17.415-16.816-33.865-28.905-48.991
		c-2.781-3.48-5.679-6.855-8.678-10.13C410.541,146.548,435.363,129.684,454.733,107.559z M15.325,107.559
		c19.37,22.126,44.192,38.99,71.932,48.815c-2.998,3.275-5.896,6.649-8.677,10.128c-12.089,15.126-21.759,31.578-28.906,48.994
		C24.888,184.804,12.799,146.692,15.325,107.559z M59.117,233.203c0.263-0.55,0.458-1.124,0.579-1.712
		c9.302-27.441,24.865-52.12,45.245-72.183c0.997-0.593,1.86-1.413,2.498-2.417c20.766-19.685,46.287-34.674,75.096-43.133
		l-0.004,117.602c0,4.143,3.357,7.5,7.5,7.5c4.142,0,7.5-3.358,7.5-7.5l0.005-131.543c24.604-4.803,50.364-4.809,74.989,0.002
		V283.86h-74.994v-22.5c0-4.142-3.357-7.5-7.5-7.5s-7.5,3.358-7.5,7.5v22.5H50.019C50.714,266.292,53.842,249.283,59.117,233.203z
		 M430.193,373.86l-390.327-0.011v-23.206v-30V298.86h390.327v21.784v30V373.86z M287.526,283.86V113.759
		c28.808,8.46,54.327,23.448,75.092,43.132c0.638,1.005,1.503,1.826,2.501,2.42c20.378,20.062,35.94,44.738,45.242,72.177
		c0.122,0.591,0.318,1.168,0.582,1.721c5.275,16.079,8.402,33.086,9.097,50.653H287.526z"/>
	<path d="M104.43,313.144c-12.406,0-22.5,10.093-22.5,22.5s10.094,22.5,22.5,22.5s22.5-10.093,22.5-22.5
		S116.836,313.144,104.43,313.144z M104.43,343.144c-4.136,0-7.5-3.364-7.5-7.5s3.364-7.5,7.5-7.5s7.5,3.364,7.5,7.5
		S108.566,343.144,104.43,343.144z"/>
	<path d="M191.496,313.144c-12.406,0-22.5,10.093-22.5,22.5s10.094,22.5,22.5,22.5s22.5-10.093,22.5-22.5
		S203.903,313.144,191.496,313.144z M191.496,343.144c-4.136,0-7.5-3.364-7.5-7.5s3.364-7.5,7.5-7.5s7.5,3.364,7.5,7.5
		S195.632,343.144,191.496,343.144z"/>
	<path d="M278.562,313.144c-12.406,0-22.5,10.093-22.5,22.5s10.094,22.5,22.5,22.5s22.5-10.093,22.5-22.5
		S290.968,313.144,278.562,313.144z M278.562,343.144c-4.136,0-7.5-3.364-7.5-7.5s3.364-7.5,7.5-7.5s7.5,3.364,7.5,7.5
		S282.698,343.144,278.562,343.144z"/>
	<path d="M365.627,313.144c-12.406,0-22.5,10.093-22.5,22.5s10.094,22.5,22.5,22.5s22.5-10.093,22.5-22.5
		S378.034,313.144,365.627,313.144z M365.627,343.144c-4.136,0-7.5-3.364-7.5-7.5s3.364-7.5,7.5-7.5s7.5,3.364,7.5,7.5
		S369.763,343.144,365.627,343.144z"/>
	<path d="M235.029,168.996c12.406,0,22.5-10.093,22.5-22.5s-10.094-22.5-22.5-22.5s-22.5,10.093-22.5,22.5
		S222.622,168.996,235.029,168.996z M235.029,138.996c4.136,0,7.5,3.364,7.5,7.5s-3.364,7.5-7.5,7.5s-7.5-3.364-7.5-7.5
		S230.893,138.996,235.029,138.996z"/>
	<path d="M235.029,256.061c12.406,0,22.5-10.093,22.5-22.5s-10.094-22.5-22.5-22.5s-22.5,10.093-22.5,22.5
		S222.622,256.061,235.029,256.061z M235.029,226.061c4.136,0,7.5,3.364,7.5,7.5s-3.364,7.5-7.5,7.5s-7.5-3.364-7.5-7.5
		S230.893,226.061,235.029,226.061z"/>
</g>
</svg>